<svg id="Capa_1" enable-background="new 0 0 497 497" height="512" viewBox="0 0 497 497" width="512" xmlns="http://www.w3.org/2000/svg"><g><g><path d="m232.414 0h107.234c6.52 0 10.891 6.698 8.265 12.666l-65.173 148.121c-2.626 5.968 1.745 12.666 8.265 12.666h47.893c6.707 0 11.073 7.054 8.082 13.057l-68.572 137.6c-2.992 6.003 1.374 13.057 8.082 13.057h19.078c8.282 0 12.873 9.594 7.678 16.044l-113.06 140.347c-6.651 8.256-19.627.277-15.26-9.384l41.573-91.969c2.618-5.791-1.407-12.402-7.753-12.736l-38.728-2.038c-6.554-.345-10.562-7.345-7.542-13.172l59.698-115.177c3.115-6.01-1.247-13.185-8.017-13.185h-66.811c-5.884 0-10.196-5.538-8.754-11.243l75.068-217.837c1.013-4.009 4.62-6.817 8.754-6.817z" fill="#ffeba8"/></g><g><path d="m338.898 173.453h-47.893c-6.52 0-10.891-6.698-8.265-12.666l65.173-148.121c2.626-5.968-1.745-12.666-8.265-12.666h-107.234c-4.134 0-7.741 2.808-8.754 6.817l-3.176 9.215h81.408c6.52 0 10.891 6.698 8.265 12.666l-65.173 148.121c-2.626 5.968 1.745 12.666 8.265 12.666h47.893c6.707 0 11.073 7.054 8.082 13.057l-68.572 137.599c-2.992 6.003 1.374 13.057 8.082 13.057h19.078c8.282 0 12.873 9.594 7.678 16.044l-87.975 109.209-2.587 5.723c-4.367 9.661 8.609 17.64 15.26 9.384l113.057-140.348c5.196-6.45.605-16.044-7.678-16.044h-19.077c-6.707 0-11.073-7.054-8.082-13.057l68.572-137.599c2.991-6.003-1.375-13.057-8.082-13.057z" fill="#fddf7c"/></g></g></svg>