<svg id="Capa_1" enable-background="new 0 0 512 512" height="512" viewBox="0 0 512 512" width="512" xmlns="http://www.w3.org/2000/svg" xmlns:xlink="http://www.w3.org/1999/xlink"><linearGradient id="SVGID_1_" gradientTransform="matrix(.707 .707 -.707 .707 245.393 -110.432)" gradientUnits="userSpaceOnUse" x1="266.607" x2="266.607" y1="570.22" y2="-79.382"><stop offset="0" stop-color="#fd5900"/><stop offset="1" stop-color="#ffde00"/></linearGradient><linearGradient id="SVGID_2_" gradientTransform="matrix(.707 .707 -.707 .707 245.393 -110.432)" gradientUnits="userSpaceOnUse" x1="281.607" x2="281.607" y1="510.22" y2="10.618"><stop offset="0" stop-color="#ffe59a"/><stop offset="1" stop-color="#ffffd5"/></linearGradient><g><g><g><path d="m490.044 21.955c-29.274-29.274-76.792-29.274-106.066 0l-280.511 280.512c-27.365.211-53.669 11.242-72.761 30.335-40.941 40.941-40.941 107.551 0 148.492s107.551 40.941 148.492 0c19.092-19.092 30.124-45.396 30.335-72.761l163.838-163.838-10.607-31.82 31.82 10.606 21.213-21.213-10.607-31.82 31.82 10.606 21.213-21.213-10.606-31.82 31.82 10.607 10.606-10.607c29.276-29.274 29.276-76.791.001-106.066z" fill="url(#SVGID_1_)"/></g></g><g><g><path d="m277.912 212.874-153.7 153.701c-16.713-7.927-37.269-5.157-51.079 8.653-17.546 17.546-17.546 46.093 0 63.64 17.547 17.546 46.093 17.546 63.64 0 13.81-13.81 16.579-34.367 8.653-51.08l153.701-153.7c5.863-5.863 5.863-15.351 0-21.213s-15.352-5.863-21.215-.001zm106.066-63.639c-5.939 5.939-5.94 15.273 0 21.213l31.82 31.82 21.213-21.213-31.82-31.82c-5.94-5.941-15.272-5.941-21.213 0zm63.64-42.427c-5.94-5.94-15.273-5.94-21.213 0-5.939 5.939-5.94 15.273 0 21.213l31.82 31.82 21.213-21.213zm-106.066 84.853c-5.939 5.939-5.94 15.273 0 21.213l31.82 31.82 21.213-21.213-31.82-31.82c-5.94-5.94-15.273-5.94-21.213 0z" fill="url(#SVGID_2_)"/></g></g></g></svg>